<?xml version="1.0" encoding="UTF-8"?>
<!DOCTYPE svg PUBLIC "-//W3C//DTD SVG 1.1//EN" "http://www.w3.org/Graphics/SVG/1.1/DTD/svg11.dtd">
<!-- Creator: CorelDRAW X8 -->
<svg xmlns="http://www.w3.org/2000/svg" xml:space="preserve" width="816px" height="1056px" version="1.1" style="shape-rendering:geometricPrecision; text-rendering:geometricPrecision; image-rendering:optimizeQuality; fill-rule:evenodd; clip-rule:evenodd"
viewBox="0 0 816 1056"
 xmlns:xlink="http://www.w3.org/1999/xlink">
 <defs>
  <style type="text/css">
   <!-- <![CDATA[
    .str0 {stroke:#FEB825;stroke-width:0.288}
    .fil3 {fill="#1EA5E9"}
    .fil4 {fill="#919AAB"}
    .fil0 {fill="#D3F4F9"}
    .fil2 {fill="#FD5911"}
    .fil1 {fill="#FFA41D"}
   ]]> -->
  </style>
 </defs>
 <g id="Layer_x0020_1">
  <g id="_1904217300784">
   <path fill="#D3F4F9" d="M415 375c27,-7 40,20 50,38 4,7 8,11 12,17 8,14 9,34 -3,43 -14,12 -30,0 -44,-3 -20,-4 -30,11 -49,8 -17,-3 -23,-19 -17,-37 2,-10 6,-13 11,-19 11,-17 19,-42 40,-47zm96 -9c14,-4 24,9 24,22 1,13 -8,25 -18,28 -28,9 -37,-41 -6,-50zm-186 0c14,-4 24,9 27,18 5,15 -2,29 -13,32 -27,7 -42,-41 -14,-50zm139 -78c33,-9 40,57 5,68 -33,9 -42,-57 -5,-68zm-93 0c17,-5 30,12 33,26 4,17 -2,37 -16,41 -33,11 -51,-56 -17,-67zm36 -52c-76,9 -141,76 -131,163 8,76 76,139 162,130 76,-7 140,-76 131,-162 -8,-75 -76,-141 -162,-131z"/>
   <path fill="#FFA41D" stroke="#FEB825" stroke-width="0.288" d="M407 236c86,-10 154,56 162,131 9,86 -55,155 -131,162 -86,9 -154,-54 -162,-130 -10,-87 55,-154 131,-163zm-158 213l0 -1c10,26 42,60 66,75 101,67 230,27 279,-71 2,-4 1,-6 2,-3 5,-5 7,-36 8,-45 4,-45 -7,-91 -32,-125 -26,-37 -64,-64 -110,-74l-22 -4 -35 0 -2 0c0,0 0,0 -1,0 0,0 0,0 0,1 -18,3 -15,0 -40,9 -13,4 -25,10 -36,17 -60,39 -92,103 -85,177 1,9 3,39 8,44z"/>
   <path fill="#FD5911" d="M249 449c0,15 21,63 27,76 25,51 58,93 97,133l25 26c4,3 10,7 13,11l23 0 58 -57c34,-43 49,-57 77,-114 7,-12 27,-60 27,-75 -1,-3 0,-1 -2,3 -49,98 -178,138 -279,71 -24,-15 -56,-49 -66,-75l0 1z"/>
   <path fill="#1EA5E9" d="M415 375c-21,5 -29,30 -40,47 -5,6 -9,9 -11,19 -6,18 0,34 17,37 19,3 29,-12 49,-8 14,3 30,15 44,3 12,-9 11,-29 3,-43 -4,-6 -8,-10 -12,-17 -10,-18 -23,-45 -50,-38z"/>
   <path fill="#1EA5E9" d="M464 288c-37,11 -28,77 5,68 35,-11 28,-77 -5,-68z"/>
   <path fill="#1EA5E9" d="M371 288c-34,11 -16,78 17,67 14,-4 20,-24 16,-41 -3,-14 -16,-31 -33,-26z"/>
   <path fill="#919AAB" d="M350 712l145 0c3,-2 9,-7 3,-14 -4,-4 -13,-3 -19,-3 -15,0 -31,0 -45,0l-23 0c-14,0 -30,0 -44,0 -8,0 -17,-1 -21,3 -5,8 1,12 4,14z"/>
   <path fill="#1EA5E9" d="M325 366c-28,9 -13,57 14,50 11,-3 18,-17 13,-32 -3,-9 -13,-22 -27,-18z"/>
   <path fill="#1EA5E9" d="M511 366c-31,9 -22,59 6,50 10,-3 19,-15 18,-28 0,-13 -10,-26 -24,-22z"/>
  </g>
 </g>
</svg>
